<?xml version="1.0" standalone="no"?>
<!DOCTYPE svg PUBLIC "-//W3C//DTD SVG 20010904//EN"
 "http://www.w3.org/TR/2001/REC-SVG-20010904/DTD/svg10.dtd">
<svg version="1.0" xmlns="http://www.w3.org/2000/svg"
 width="227.000000pt" height="227.000000pt" viewBox="0 0 227.000000 227.000000"
 preserveAspectRatio="xMidYMid meet">
<metadata>
Created by potrace 1.14, written by Peter Selinger 2001-2017
</metadata>
<g transform="translate(0.000000,227.000000) scale(0.100000,-0.100000)"
fill="#000000" stroke="none">
<path d="M1098 2242 c-85 -69 -194 -206 -248 -312 -29 -57 -51 -82 -84 -94
-16 -6 -18 -3 -12 26 14 72 121 258 194 338 32 35 39 50 23 50 -18 0 -214 -52
-246 -66 -25 -10 -42 -28 -59 -62 -48 -95 -94 -262 -98 -357 0 -24 -4 -48 -7
-54 -4 -5 -38 -12 -77 -15 -116 -9 -203 -33 -321 -87 -24 -10 -47 -19 -52 -19
-14 0 -91 -245 -91 -289 0 -21 1 -21 28 4 42 41 141 109 212 148 65 36 169 71
179 62 11 -12 -38 -60 -99 -96 -176 -104 -330 -238 -330 -286 0 -37 168 -184
302 -262 79 -47 128 -90 128 -113 0 -31 -208 70 -326 158 -49 36 -90 61 -92
55 -7 -22 60 -247 80 -268 45 -48 261 -119 380 -126 76 -4 82 -7 84 -45 1 -25
12 -117 19 -154 13 -72 82 -242 108 -266 32 -29 202 -81 265 -82 23 0 22 2
-16 48 -96 115 -202 320 -182 352 14 22 54 -21 115 -125 74 -125 164 -235 235
-285 l27 -19 76 74 c86 85 152 173 197 264 20 39 43 69 63 81 56 35 57 26 9
-85 -38 -87 -87 -167 -141 -233 -63 -76 -68 -86 -45 -78 11 3 35 8 54 11 64
11 197 55 219 72 44 37 114 251 126 388 4 39 9 72 11 75 3 2 31 5 62 7 89 4
202 30 303 71 l93 37 33 103 c39 125 56 206 39 194 -156 -120 -203 -151 -301
-194 -33 -15 -72 -29 -87 -32 -27 -5 -28 -4 -14 23 18 34 25 39 111 86 115 62
201 132 283 228 32 38 32 38 15 68 -17 29 -120 131 -174 172 -13 10 -53 34
-89 54 -99 55 -136 81 -148 108 -10 22 -9 25 9 25 55 0 266 -117 359 -199 19
-17 38 -27 42 -23 11 11 -51 227 -76 264 -16 24 -42 40 -104 65 -135 54 -194
67 -348 73 -7 0 -14 30 -18 73 -17 171 -84 366 -139 401 -25 17 -169 60 -235
71 l-44 7 66 -83 c72 -91 153 -242 163 -303 6 -36 5 -38 -13 -27 -37 21 -50
37 -87 104 -21 38 -56 94 -79 125 -46 63 -165 189 -185 196 -7 3 -27 -7 -45
-22z m93 -99 c79 -81 133 -153 175 -234 20 -39 49 -79 63 -90 28 -22 140 -89
149 -89 2 0 2 22 -1 49 -9 75 -60 219 -111 310 l-45 81 27 -6 c75 -18 102 -50
145 -169 31 -89 47 -165 52 -252 2 -37 4 -73 4 -79 1 -7 15 -10 34 -9 17 2 68
-3 112 -10 203 -33 341 -99 359 -172 10 -36 0 -41 -37 -19 -80 48 -121 67
-199 91 -83 27 -188 47 -188 36 0 -6 38 -74 75 -136 11 -20 47 -46 97 -74 43
-23 105 -63 136 -89 72 -58 152 -134 152 -143 0 -10 -111 -116 -165 -159 -22
-18 -72 -50 -111 -71 -82 -45 -98 -61 -153 -153 l-41 -68 47 5 c86 9 176 38
281 89 57 28 105 48 108 45 3 -2 -3 -23 -12 -46 -14 -36 -25 -46 -88 -75 -39
-19 -96 -41 -126 -50 -73 -20 -253 -46 -262 -38 -4 4 -8 86 -9 182 -4 305 -24
312 -28 10 -1 -101 -4 -187 -6 -190 -2 -3 -47 -5 -102 -4 -97 0 -98 1 -101 26
-4 31 12 44 63 52 22 3 40 5 40 6 0 0 0 111 0 246 0 135 3 248 6 250 13 8 59
-49 59 -73 0 -15 9 -27 25 -35 21 -9 32 -8 63 9 20 12 58 23 85 25 26 3 50 7
52 10 3 3 -9 17 -27 31 -18 14 -45 36 -59 49 -15 13 -44 37 -65 53 -21 17 -57
46 -79 65 -23 19 -99 80 -169 135 -71 55 -133 105 -140 110 -32 29 -141 105
-150 105 -6 0 -56 -37 -111 -81 -55 -45 -145 -118 -200 -161 -55 -44 -109 -87
-120 -96 -11 -10 -71 -57 -133 -106 -61 -49 -112 -93 -112 -97 0 -11 29 -15
92 -15 32 1 59 -3 61 -9 2 -5 3 -120 3 -255 -1 -239 -2 -245 -21 -244 -161 8
-377 69 -436 123 -19 17 -32 40 -36 65 l-6 40 46 -27 c26 -15 69 -39 97 -53
57 -29 234 -76 267 -72 20 3 19 7 -26 83 -45 75 -52 83 -133 130 -105 61 -144
91 -226 170 -72 69 -74 55 24 145 71 66 121 103 189 140 80 44 110 73 151 146
38 69 42 84 17 79 -132 -26 -218 -54 -309 -101 l-103 -53 14 45 c16 54 28 64
122 104 101 42 256 76 369 80 6 0 11 14 12 32 4 131 22 224 64 327 34 83 68
125 111 135 35 8 34 0 -4 -77 -62 -122 -121 -319 -101 -339 4 -3 43 15 87 41
76 45 82 52 118 121 21 41 54 95 73 120 42 54 157 179 164 180 3 0 31 -26 61
-57z m-30 -521 c93 -70 305 -235 355 -277 33 -27 82 -68 109 -90 68 -56 109
-99 98 -102 -25 -9 -144 53 -236 123 -56 43 -104 80 -107 84 -3 3 -23 19 -45
35 -22 17 -42 32 -45 35 -15 16 -63 41 -72 38 -14 -5 16 -34 97 -96 33 -25 62
-49 65 -52 3 -4 31 -26 62 -49 l58 -43 -5 -245 c-2 -135 -5 -247 -7 -248 -2
-1 -18 -6 -36 -10 l-33 -7 1 189 c1 103 7 212 12 242 10 49 9 55 -8 68 -21 15
-64 9 -76 -10 -15 -23 -8 -59 11 -64 11 -3 22 -12 25 -20 7 -17 9 -490 2 -501
-2 -4 -44 -6 -93 -6 l-88 1 1 205 c0 171 3 210 16 230 15 23 22 53 19 90 -1 9
-13 30 -27 47 -46 55 -132 51 -174 -9 -25 -35 -25 -76 -1 -116 27 -45 30 -70
33 -259 1 -93 4 -181 7 -195 11 -56 20 60 18 240 -2 174 -3 187 -24 217 -31
42 -29 69 6 104 38 38 74 38 111 0 31 -30 33 -69 6 -101 -25 -28 -29 -65 -30
-273 l-2 -207 241 0 242 0 -3 -70 c-4 -93 -37 -217 -82 -310 -34 -70 -40 -76
-79 -87 -30 -8 -43 -8 -43 -1 0 6 18 43 39 82 22 39 48 99 60 134 24 73 46
180 39 188 -8 7 -57 -13 -115 -49 -45 -27 -59 -43 -94 -110 -43 -83 -97 -154
-184 -243 l-54 -56 -56 61 c-76 81 -128 150 -182 246 -41 75 -50 83 -119 123
-40 23 -78 42 -83 42 -25 0 23 -175 85 -311 24 -53 44 -102 44 -108 0 -15 -35
-6 -70 18 -45 31 -115 232 -126 361 -3 36 -7 71 -9 77 -3 10 24 13 113 13 64
0 124 5 132 10 17 11 3 13 -127 15 -45 1 -85 4 -88 7 -6 6 -7 120 -6 398 l1
106 43 32 42 33 5 -28 c3 -15 7 -118 9 -228 1 -110 4 -209 7 -221 4 -15 21
-26 58 -37 71 -23 84 -21 98 9 10 21 9 31 -8 61 -17 32 -19 59 -20 229 l-1
192 128 101 c70 56 131 101 134 101 4 0 30 -19 58 -43 68 -57 127 -92 127 -76
0 24 -159 149 -190 149 -18 0 -94 -56 -200 -146 -14 -12 -38 -33 -55 -47 l-29
-25 -2 -206 c-1 -174 -4 -209 -18 -231 -20 -30 -47 -30 -53 0 -2 11 -5 110 -5
221 -2 189 0 203 20 235 21 35 21 35 2 67 -11 18 -22 32 -26 32 -20 0 -64 -37
-64 -55 -1 -47 -59 -85 -137 -91 -65 -6 -68 -11 37 71 76 58 92 71 134 106
182 151 384 309 395 309 5 0 19 -8 32 -18z m-401 -388 c0 -16 -16 -19 -25 -4
-8 13 4 32 16 25 5 -4 9 -13 9 -21z m650 -49 c0 -8 -9 -15 -20 -15 -20 0 -26
11 -13 23 12 13 33 7 33 -8z m246 -46 c10 -17 -13 -36 -27 -22 -12 12 -4 33
11 33 5 0 12 -5 16 -11z m-778 -427 c2 -7 -3 -12 -12 -12 -9 0 -16 7 -16 16 0
17 22 14 28 -4z"/>
<path d="M1068 2029 c-40 -42 -86 -100 -101 -128 l-28 -52 38 8 c21 4 106 8
190 8 l151 -1 -13 26 c-17 33 -101 147 -137 185 l-28 30 -72 -76z m121 -100
c-29 -6 -128 -3 -135 4 -2 2 5 15 17 28 11 13 29 35 41 48 l20 24 44 -49 43
-49 -30 -6z"/>
<path d="M334 1280 c-32 -22 -84 -63 -113 -90 l-55 -50 35 -36 c39 -41 165
-137 193 -147 17 -7 18 -3 10 60 -10 85 -7 225 5 270 13 44 -1 43 -75 -7z m8
-87 c9 -34 9 -143 0 -143 -15 0 -92 71 -92 85 0 14 65 75 79 75 5 0 11 -8 13
-17z"/>
<path d="M1859 1298 c-1 -13 0 -27 1 -33 7 -26 7 -216 1 -262 -4 -29 -5 -53
-1 -53 26 0 240 165 240 185 0 20 -206 185 -231 185 -5 0 -10 -10 -10 -22z
m135 -131 c17 -23 18 -30 7 -50 -12 -23 -55 -54 -76 -56 -10 -1 -8 135 2 152
7 11 43 -14 67 -46z"/>
<path d="M1105 1552 c-51 -59 -78 -84 -140 -131 -99 -75 -141 -114 -127 -119
7 -2 48 23 92 55 44 32 97 70 117 86 26 18 46 26 64 23 34 -6 69 19 69 48 0
40 -51 66 -75 38z m45 -38 c0 -17 -26 -19 -36 -3 -7 12 15 31 28 23 4 -3 8
-12 8 -20z"/>
<path d="M1111 1141 c-19 -12 -4 -51 19 -51 21 0 40 28 33 48 -5 14 -32 16
-52 3z"/>
<path d="M940 410 c0 -11 104 -146 148 -192 20 -21 43 -38 52 -38 17 0 91 89
141 168 36 59 30 77 -20 62 -29 -8 -261 -5 -298 3 -13 3 -23 2 -23 -3z m269
-87 c-50 -56 -68 -73 -78 -73 -14 0 -81 81 -75 91 3 5 44 9 91 9 l86 0 -24
-27z"/>
<path d="M1690 2106 c0 -2 6 -19 14 -37 8 -19 26 -90 41 -159 15 -69 30 -128
34 -132 3 -4 35 -12 71 -17 123 -20 122 -20 238 -57 10 -3 10 1 1 19 -44 81
-184 235 -288 316 -52 40 -111 76 -111 67z m157 -168 c47 -41 112 -110 113
-120 0 -11 -84 -10 -113 1 -25 10 -31 25 -43 97 -3 21 -8 42 -11 47 -11 18 20
4 54 -25z"/>
<path d="M472 2041 c-101 -75 -200 -176 -258 -262 -24 -37 -44 -69 -44 -71 0
-3 48 7 108 23 59 15 127 28 152 30 66 4 67 5 74 67 11 94 17 121 40 193 13
39 19 72 15 74 -4 3 -43 -22 -87 -54z m-8 -123 c-9 -71 -20 -98 -41 -99 -10 0
-29 -2 -43 -5 -77 -13 -80 -13 -71 4 13 24 141 152 152 152 5 0 6 -24 3 -52z"/>
<path d="M170 560 c0 -16 108 -150 175 -215 73 -72 189 -165 206 -165 11 0 7
23 -15 100 -22 77 -32 137 -35 198 -1 31 -2 32 -48 32 -27 0 -86 10 -133 21
-47 12 -100 25 -117 29 -18 4 -33 5 -33 0z m257 -111 c17 -6 23 -19 28 -56 3
-26 8 -58 11 -71 4 -20 2 -22 -13 -13 -29 17 -97 83 -128 124 l-28 37 54 -6
c30 -4 64 -10 76 -15z"/>
<path d="M2030 554 c-61 -20 -175 -44 -208 -44 -39 0 -51 -11 -56 -50 -9 -65
-26 -146 -45 -213 -11 -37 -15 -67 -10 -67 24 0 148 97 223 175 50 53 140 164
155 193 14 26 8 27 -59 6z m-70 -95 c0 -6 -34 -45 -75 -87 -60 -61 -78 -74
-85 -62 -5 8 -7 17 -5 20 1 3 8 31 15 62 11 56 12 57 52 65 63 12 98 13 98 2z"/>
</g>
</svg>
